Patient4_TMGait_0pt6_02_right_02_EMG.mot
version=1
nRows=13
nColumns=33
inDegrees=no
endheader
time	1LAddLong	2LGlutMax	3LGlutMed	4LIliopsoas	5LSemiMemb	6LBicFemLong	7LRecFem	8LVastMed	9LVastLat	10LGasMed	11LTibAnt	12lTibPost	13LPeroneusLong	14LSol	15LExtDigLong	16LFlexDigLong	17RAddLong	18RGlutMax	19RGlutMed	20RIliopsoas	21RSemiMemb	22RBicFemLong	23RRecFem	24RVastMed	25RVastLat	26RGasMed	27RTibAnt	28RTibPost	29RPeroneusLong	30RSol	31RExtDigLong	32RFlexDigLong
1.76	-0.006256	-0.064697	-0.016632	0.00351	0.02182	-0.001831	0.13534	0.014191	0.024872	-0.005493	-0.043488	0.003357	-0.2356	0.053101	-0.088501	0.003357	-0.006409	-0.27588	0.4512	-0.26596	0.1445	0.065613	-0.067596	-0.014191	-0.028076	-0.009155	0.177	-0.001984	0.17319	-0.079346	-0.00061	-0.004578
1.761	-0.012054	-0.063629	0.003357	-0.014038	-0.002289	0.008087	0.15274	0.00885	0.014801	-0.018921	-0.030823	-0.020905	0.13794	0.082855	0.006256	0.00473	-0.010223	-0.23987	0.60745	-0.23529	0.12955	0.05661	-0.045929	-0.030365	-0.032501	-0.003967	0.12054	-0.002899	0.1506	-0.033569	-0.005646	-0.005646
1.762	-0.016479	-0.079041	-0.032043	-0.004578	-0.016174	-0.016327	0.14755	0.00061	0.016479	-0.075989	-0.022278	0.00412	0.10941	0.040131	0.11581	0.009766	-0.035553	-0.26382	0.56458	-0.060883	0.11597	0.054932	0.04837	-0.097504	-0.043488	-0.003204	0.09079	-0.002441	0.090485	0.071716	-0.001373	0.000916
1.763	-0.013885	-0.12466	0.023499	-0.007935	-0.044708	-0.041962	0.14801	0.014801	0.01297	-0.050201	0.042572	0.011597	-0.20142	-0.01358	0.13489	0.005646	-0.057526	-0.26977	0.49591	0.038605	0.11993	0.042419	0.067749	-0.1149	-0.048523	-0.002594	0.078278	-0.004578	0.087585	-0.011292	0.000458	0.002289
1.764	-0.005798	-0.15488	-0.039063	0.011902	-0.056	-0.092468	0.10559	0.013885	0.017853	0.033264	0.026398	0.002899	-0.23483	-0.25909	0.13138	-0.007629	-0.069122	-0.34027	0.23254	0.08316	0.11734	0.035248	0.088806	-0.085449	-0.049286	-0.001526	-0.21408	-0.005188	0.11032	-0.085602	0.000763	-0.006104
1.765	-0.00473	-0.1561	-0.1767	0.010223	-0.021667	-0.098267	0.10422	0.011597	0.011597	0.058441	-0.0383	0.009613	-0.007019	-0.51605	0.038757	-0.00946	-0.073853	-0.27054	-0.014801	0.13168	0.11658	0.02243	0.12024	-0.093842	-0.033417	-0.009308	-0.26764	-0.00351	0.031738	-0.02182	0.006409	-0.001068
1.766	-0.019836	-0.13596	-0.001373	0.014801	0.019531	-0.057373	0.10422	0.003052	0.031891	0.074005	-0.061951	0.010223	0.43915	-0.18631	0.065765	-0.00885	-0.061035	-0.2385	0.12329	0.079651	0.10193	0.000458	0.041962	-0.10544	-0.040588	-0.00946	0.004425	-0.00351	-0.040283	-0.044861	0.000458	-0.002747
1.767	-0.004425	-0.14206	0.17105	0.018616	0.050659	-0.042267	0.037384	0.009308	0.066681	0.15793	-0.049744	0.017242	0.26276	0.002747	0.023499	-0.007935	-0.042419	-0.2121	0.4892	-0.004883	0.092468	-0.005951	0.059967	-0.092773	-0.026703	-0.00351	0.21866	-0.006866	-0.10819	-0.14038	-0.005493	0.002747
1.768	-0.000458	-0.15427	0.13702	-0.009003	0.041046	-0.033722	0.071411	0.0177	0.083008	0.16312	0.006866	0.010529	0.062103	0.093384	0.13031	-0.001068	-0.035553	-0.17929	0.26077	0.059204	0.083313	-0.050049	0.07782	-0.07843	-0.030365	-0.001678	0.14786	-0.004578	-0.066986	-0.097504	-0.000458	0.005646
1.769	-0.005493	-0.14206	0.233	-0.017548	0.010681	0.011292	0.10834	0.006866	0.040436	0.18402	0.048981	0.002441	-0.30029	0.023499	0.16739	0.005493	-0.016785	-0.18051	0.15243	0.066528	0.085144	-0.028687	0.13702	-0.081787	-0.037994	-0.001831	-0.17258	-0.002899	-0.013733	-0.02655	0.007629	-0.002899
1.77	-0.012665	-0.13092	0.19699	-0.040436	-0.011749	0.021973	0.097809	0.011139	0.006866	0.18631	0.20111	0.007629	-0.17731	0.039368	0.16007	-0.001678	0.003204	-0.1889	-0.013275	0.056458	0.073547	-0.023499	0.19089	-0.079193	-0.033722	-0.012512	-0.19623	-0.003815	0.033569	0.020142	-0.001068	-0.007935
1.771	-0.011292	-0.13565	0.15839	-0.020752	-0.027313	0.1181	0.11795	0.010681	0.009155	0.13977	0.41382	0.009613	-0.33066	0.18738	0.54535	0.010529	0.031128	-0.11246	0.048523	-0.04776	0.079651	-0.001831	0.23148	-0.11475	-0.040131	-0.014648	0.19791	-0.003052	0.14923	-0.001984	0.001068	-0.002289
1.772	-0.011292	-0.13977	0.14938	0.00412	0.028992	0.11383	0.11902	0.00885	0.000916	0.072632	0.33981	0.00885	-0.51575	0.18127	0.16373	0.010223	0.0383	-0.16785	0.079041	-0.23712	0.066833	0	0.29495	-0.12741	-0.054626	-0.005493	0.1471	-0.008087	0.33814	-0.01297	0.000305	-0.003967
